<?xml version="1.0" encoding="UTF-8"?>
<svg version="1.1" viewBox="0 0 1500 1500" xmlns="http://www.w3.org/2000/svg">
<g transform="translate(-.32362 -.32362)">
<svg width="1500" height="1500" data-background-color="#ffffff" viewBox="0 0 343 343" xmlns="http://www.w3.org/2000/svg" xmlns:xlink="http://www.w3.org/1999/xlink">
<g transform="translate(.074 .074)">
<svg width="342.85" height="342.85" viewBox="0 0 342.85155851775386 342.85155851775386">
<svg/>
<svg width="342.85" height="342.85" viewBox="0 0 342.85155851775386 342.85155851775386">
<g fill="#113f67" stroke="transparent">
<path d="m0 171.43c0-94.676 76.75-171.43 171.43-171.43s171.43 76.75 171.43 171.43-76.75 171.43-171.43 171.43-171.43-76.75-171.43-171.43zm171.43 165.12c91.195 0 165.12-73.928 165.12-165.12 0-91.195-73.928-165.12-165.12-165.12-91.195 0-165.12 73.928-165.12 165.12 0 91.195 73.928 165.12 165.12 165.12z" data-fill-palette-color="tertiary"/>
<ellipse cx="171.43" cy="171.43" rx="164.57" ry="164.57" stroke-width="0" data-fill-palette-color="tertiary"/>
</g>
<g transform="translate(64.847 79.95)">
<svg width="213.16" height="182.95" viewBox="0 0 213.1584412271571 182.9522685091377">
<svg width="213.16" height="182.95" viewBox="0 0 213.1584412271571 182.9522685091377">
<svg width="213.16" height="182.95" viewBox="0 0 213.1584412271571 182.9522685091377">
<g transform="translate(0 113.07)">
<svg width="213.16" height="69.88" viewBox="0 0 213.1584412271571 69.88042688949353">
<svg width="213.16" height="69.88" viewBox="0 0 213.1584412271571 69.88042688949353">
<svg width="213.16" height="69.88" viewBox="0 0 213.1584412271571 69.88042688949353">
<g>
<svg width="213.16" height="69.88" data-palette-color="#ffffff" viewBox="3.17 -36.23 112.45 36.86">
<path class="wordmark-text-0" d="m26.78-13.23q0 6.66-3.06 10.19-3.07 3.53-8.85 3.53-5.67 0-8.68-3.57-3.02-3.56-3.02-10.15 0-6.81 3.09-10.24t8.75-3.43q5.96 0 8.87 3.39 2.9 3.39 2.9 10.28zm-4.61 0q0-5.25-1.67-7.84-1.68-2.59-5.41-2.59-3.79 0-5.54 2.64-1.76 2.64-1.76 7.79 0 5.12 1.76 7.8 1.75 2.67 5.27 2.67 3.88 0 5.61-2.61 1.74-2.61 1.74-7.86zm24.9 13.23h-4.1v-16.75q0-3.76-0.6-5.26t-2.19-1.5q-1.56 0-2.52 2.34-0.97 2.35-0.97 6.35v14.82h-4.12v-20.78q0-4.61-0.15-5.64h3.64l0.14 3.1v1.18h0.05q0.83-2.49 2.1-3.63 1.27-1.13 3.18-1.13 2.14 0 3.21 1.17 1.06 1.17 1.52 3.61h0.05q0.98-2.59 2.33-3.69 1.36-1.09 3.43-1.09 2.88 0 4.13 2.1 1.24 2.09 1.24 7.2v17.6h-4.1v-16.75q0-3.76-0.6-5.26-0.59-1.5-2.18-1.5-1.61 0-2.55 2.05t-0.94 6.15v15.31zm31.12-26.42v22.95h9.28v3.47h-23.97v-3.47h10.3v-19.48h-7.79v-3.47h12.18zm0-5.12h-4.88v-4.69h4.88v4.69zm32.98 27.29h-0.12q-1.19 2.57-3.17 3.73-1.98 1.15-4.93 1.15-4.94 0-7.25-3.39-2.32-3.39-2.32-10.23 0-13.82 9.57-13.82 2.95 0 4.94 1.05t3.19 3.45h0.05l-0.05-3.69v-10.23h4.39v30.79q0 4.12 0.15 5.44h-4.2q-0.1-0.37-0.17-1.78-0.08-1.42-0.08-2.47zm-13.25-8.88q0 5.42 1.45 7.89 1.45 2.48 4.72 2.48 3.57 0 5.28-2.57 1.71-2.58 1.71-8.2 0-5.24-1.65-7.64-1.65-2.39-5.29-2.39-3.29 0-4.76 2.52-1.46 2.51-1.46 7.91z" fill="#fff" data-fill-palette-color="quaternary"/>
</svg>
</g>
</svg>
</svg>
</svg>
</g>
<g transform="translate(58.292)">
<svg width="96.575" height="96.575" viewBox="0 0 96.57474996128008 96.57474996128008">
<svg class="icon-icon-0" width="96.575" height="96.575" clip-rule="evenodd" fill-rule="evenodd" image-rendering="optimizeQuality" shape-rendering="geometricPrecision" text-rendering="geometricPrecision" data-fill-palette-color="quaternary" version="1.0" viewBox="1486 1486 7028 7028" xml:space="preserve" xmlns="http://www.w3.org/2000/svg" xmlns:xlink="http://www.w3.org/1999/xlink"><g fill="#fff" fill-rule="nonzero" data-fill-palette-color="quaternary"><path class="" d="m5e3 1486c1940 0 3514 1574 3514 3514s-1574 3514-3514 3514-3514-1574-3514-3514 1574-3514 3514-3514zm0 100c-1885 0-3414 1529-3414 3414s1529 3414 3414 3414 3414-1529 3414-3414-1529-3414-3414-3414z" data-fill-palette-color="quaternary"/><path class="" d="m6250 3596c400 0 649 387 649 753 0 368-252 753-649 753-400 0-649-388-649-753 0-369 252-753 649-753zm-51 102c175 59 282 251 282 436 0 223-154 454-394 454-198 0-337-157-380-336-4 32-6 65-6 97 0 309 205 653 549 653 341 0 549-340 549-653 0-310-206-653-549-653-18 0-34 1-51 2zm-112 82c-183 0-294 187-294 354s110 354 294 354 294-187 294-354-110-354-294-354z" data-fill-palette-color="quaternary"/><path class="" d="m3685 3596c399 0 648 387 648 753 0 368-251 753-648 753-400 0-649-388-649-753 0-369 252-753 649-753zm-51 102c175 59 282 251 282 436 0 223-154 454-394 454-198 0-337-157-380-336-4 32-6 65-6 97 0 309 205 653 549 653 341 0 549-340 549-653 0-310-206-653-549-653-18 0-35 1-51 2zm-112 82c-184 0-294 187-294 354s110 354 294 354 294-187 294-354-111-354-294-354z" data-fill-palette-color="quaternary"/><path class="" d="m3791 3118c44-48 118 19 74 67-337 373-759 522-1256 446-64-10-50-109 15-99 464 71 852-66 1167-414z" data-fill-palette-color="quaternary"/><path class="" d="m6255 3090c-65-11-49-109 16-99 536 89 897 408 1081 958 20 62-74 94-95 32-171-512-505-809-1002-891z" data-fill-palette-color="quaternary"/><path class="" d="m3776 6717c-66 0-66-100 0-100h2448c66 0 66 100 0 100h-2448z" data-fill-palette-color="quaternary"/></g></svg>
</svg>
</g>
</svg>
</svg>
</svg>
</g>
</svg>
</svg>
<rect width="342.85" height="342.85" fill="none" visibility="hidden"/>
</g>
</svg>
</g>
</svg>
